<?xml version="1.0" encoding="utf-8"?>
<!-- Generator: Adobe Illustrator 18.0.0, SVG Export Plug-In . SVG Version: 6.00 Build 0)  -->
<!DOCTYPE svg PUBLIC "-//W3C//DTD SVG 1.1//EN" "http://www.w3.org/Graphics/SVG/1.1/DTD/svg11.dtd">
<svg version="1.1" id="Arrow_1_" xmlns="http://www.w3.org/2000/svg" xmlns:xlink="http://www.w3.org/1999/xlink" x="0px" y="0px"
	 width="500px" height="500px" viewBox="0 0 500 500" enable-background="new 0 0 500 500" xml:space="preserve">
  <metadata>
    <?xpacket begin="﻿" id="W5M0MpCehiHzreSzNTczkc9d"?>
    <x:xmpmeta xmlns:x="adobe:ns:meta/" x:xmptk="Adobe XMP Core 5.6-c011 79.156380, 2014/06/19-23:40:37        ">
     <rdf:RDF xmlns:rdf="http://www.w3.org/1999/02/22-rdf-syntax-ns#">
      <rdf:Description rdf:about=""
        xmlns:xmpMM="http://ns.adobe.com/xap/1.0/mm/"
        xmlns:stEvt="http://ns.adobe.com/xap/1.0/sType/ResourceEvent#"
        xmlns:xmp="http://ns.adobe.com/xap/1.0/"
        xmlns:xmpRights="http://ns.adobe.com/xap/1.0/rights/"
        xmlns:dc="http://purl.org/dc/elements/1.1/"
       xmpMM:DocumentID="xmp.did:0a4ed4aee8ba1c27549005686d5c8698"
       xmpMM:OriginalDocumentID="xmp.did:0a4ed4aee8ba1c27549005686d5c8698"
       xmpMM:InstanceID="xmp.iid:0a4ed4aee8ba1c27549005686d5c8698"
       xmp:ModifyDate="2015-04-10T11:14:46+02:00"
       xmp:MetadataDate="2015-04-10T11:14:46+02:00"
       xmpRights:Marked="True"
       xmpRights:WebStatement="http://www.adobe.com/legal/general-terms.html">
       <xmpMM:History>
        <rdf:Seq>
         <rdf:li
          stEvt:action="saved"
          stEvt:instanceID="xmp.iid:0a4ed4aee8ba1c27549005686d5c8698"
          stEvt:when="2015-04-10T11:14:46+02:00"/>
        </rdf:Seq>
       </xmpMM:History>
       <xmpRights:UsageTerms>
        <rdf:Alt>
         <rdf:li xml:lang="x-default">This work is licensed under the Adobe General Terms of Use http://www.adobe.com/legal/general-terms.html.</rdf:li>
        </rdf:Alt>
       </xmpRights:UsageTerms>
       <dc:publisher>
        <rdf:Bag>
         <rdf:li>Adobe Systems Incorporated</rdf:li>
        </rdf:Bag>
       </dc:publisher>
      </rdf:Description>
     </rdf:RDF>
    </x:xmpmeta>
    <?xpacket end="r"?>
  </metadata>
<g id="Layer_18">
	<g id="menu">
		<g>
			<path fill="#3E3E3E" d="M46.9,171.9h406.2c25.8,0,46.9-21,46.9-46.9s-21-46.9-46.9-46.9H46.9C21,78.1,0,99.2,0,125
				S21,171.9,46.9,171.9z M46.9,109.4h406.2c8.6,0,15.6,7,15.6,15.6s-7,15.6-15.6,15.6H46.9c-8.6,0-15.6-7-15.6-15.6
				C31.2,116.4,38.2,109.4,46.9,109.4z M453.1,203.1H46.9C21,203.1,0,224.2,0,250s21,46.9,46.9,46.9h406.2c25.8,0,46.9-21,46.9-46.9
				S479,203.1,453.1,203.1z M453.1,265.6H46.9c-8.6,0-15.6-7-15.6-15.6s7-15.6,15.6-15.6h406.2c8.6,0,15.6,7,15.6,15.6
				S461.8,265.6,453.1,265.6z M453.1,328.1H46.9C21,328.1,0,349.2,0,375s21,46.9,46.9,46.9h406.2c25.8,0,46.9-21,46.9-46.9
				S479,328.1,453.1,328.1z M453.1,390.6H46.9c-8.6,0-15.6-7-15.6-15.6s7-15.6,15.6-15.6h406.2c8.6,0,15.6,7,15.6,15.6
				S461.8,390.6,453.1,390.6z"/>
		</g>
	</g>
</g>
<g id="Layer_1_1_">
</g>
</svg>
